<svg xmlns="http://www.w3.org/2000/svg" viewBox="0 0 68 64" role="img" aria-labelledby="title desc">
  <title id="title">Cubby</title>
  <desc id="desc">Two rounded shapes forming the abstract Cubby mark.</desc>
  <path fill="#147ee8" d="M11 0h42c6.1 0 11 4.9 11 11s-4.9 11-11 11H34c-6.6 0-12 5.4-12 12v19c0 6.1-4.9 11-11 11S0 59.1 0 53V11C0 4.9 4.9 0 11 0Z"/>
  <path fill="#32aeb1" d="M39 64c-5.5 0-10-4.5-10-10v-2c0-5.5 4.5-10 10-10h3c2.8 0 5-2.2 5-5v-2c0-5.5 4.5-10 10-10h1c5.5 0 10 4.5 10 10v19c0 5.5-4.5 10-10 10Z"/>
</svg>
